PathFileType	4	(X/Y/Z)	C:/Users/opensim2020/Desktop/walking_exp_matlab/subject03_walking10_straight_02.trc	
DataRate	CameraRate	NumFrames	NumMarkers	Units	OrigDataRate	OrigDataStartFrame	OrigNumFrames	
100.00	100.00	7	45	mm	100.00	2031	347	
Frame#	Time	LFHD			RFHD			LBHD			RBHD			C7			T10			CLAV			STRN			RBAK			LSHO			LUPA			LELB			LFRM			LWRA			LWRB			LFIN			RSHO			RUPA			RELB			RFRM			RWRA			RWRB			RFIN			LASI			RASI			LPSI			RPSI			LTHI			LKNE			LTIB			LANK			LHEE			LTOE			RTHI			RKNE			RTIB			RANK			RHEE			RTOE			*39			*40			*41			*42			*43			*44			
		X1	Y1	Z1	X2	Y2	Z2	X3	Y3	Z3	X4	Y4	Z4	X5	Y5	Z5	X6	Y6	Z6	X7	Y7	Z7	X8	Y8	Z8	X9	Y9	Z9	X10	Y10	Z10	X11	Y11	Z11	X12	Y12	Z12	X13	Y13	Z13	X14	Y14	Z14	X15	Y15	Z15	X16	Y16	Z16	X17	Y17	Z17	X18	Y18	Z18	X19	Y19	Z19	X20	Y20	Z20	X21	Y21	Z21	X22	Y22	Z22	X23	Y23	Z23	X24	Y24	Z24	X25	Y25	Z25	X26	Y26	Z26	X27	Y27	Z27	X28	Y28	Z28	X29	Y29	Z29	X30	Y30	Z30	X31	Y31	Z31	X32	Y32	Z32	X33	Y33	Z33	X34	Y34	Z34	X35	Y35	Z35	X36	Y36	Z36	X37	Y37	Z37	X38	Y38	Z38	X39	Y39	Z39	X40	Y40	Z40	X41	Y41	Z41	X42	Y42	Z42	X43	Y43	Z43	X44	Y44	Z44	X45	Y45	Z45	

217	2.160	-949.24304	-426.55505	1600.89624	-1080.78186	-411.26495	1609.48047	-939.06097	-294.74347	1573.76233	-1069.21387	-284.20303	1581.11267	-994.84564	-241.81665	1410.84216	-997.33057	-208.77213	1094.96106	-1008.81360	-360.34692	1332.37402	-1006.55463	-405.24115	1168.88013	-1085.12073	-177.39029	1232.31824	-850.69989	-334.91092	1369.33264	-776.91882	-372.12793	1179.99219	-765.62982	-412.73004	1064.61230	-776.33905	-483.21664	956.34198	-816.84741	-540.52808	855.68982	-763.04742	-525.49719	850.90405	-779.32654	-572.60297	782.83990	-1163.19312	-298.58261	1355.20496	-1234.11572	-297.94464	1131.46326	-1246.74036	-317.27148	1020.19049	-1247.90820	-340.54129	885.14459	-1213.46973	-377.73215	792.29675	-1255.43591	-344.26825	784.78723	-1245.63733	-371.25183	714.92560	-886.08453	-382.75693	937.52063	-1124.37207	-372.10120	933.40094	-931.30133	-218.43127	955.45612	-1080.15881	-212.66995	954.40509	-856.01599	-329.05002	632.96735	-899.21100	-324.23242	455.84369	-903.18091	-251.70221	270.21063	-951.27368	-204.32092	66.87154	-988.53888	-160.26431	34.25615	-970.35077	-353.12271	30.37674	-1172.67908	-392.83218	642.45563	-1140.53235	-479.09991	482.93063	-1147.31616	-455.38483	295.10568	-1107.03845	-446.61777	77.46881	-1054.99121	-403.09363	42.58503	-1086.87622	-583.96783	45.84121	-990.23340	-348.03397	1672.74146															 
218	2.170	-949.97076	-432.49646	1600.47437	-1081.55640	-417.17133	1608.89038	-939.65485	-300.85159	1572.89478	-1069.90222	-290.15027	1580.14099	-995.28986	-248.13123	1410.31287	-997.65680	-214.97299	1094.31665	-1009.16827	-366.70151	1331.59277	-1006.59930	-411.38708	1168.02380	-1085.36902	-183.61844	1231.59204	-851.11853	-341.31885	1368.85852	-777.14581	-378.31870	1179.62634	-765.61212	-418.95874	1064.32300	-776.48285	-490.87378	957.06049	-817.43695	-550.05231	857.72162	-763.95947	-534.44751	852.11334	-780.31567	-582.77588	785.00977	-1163.56287	-304.89584	1354.16565	-1234.13159	-303.68805	1130.43555	-1246.65625	-322.71362	1019.10144	-1247.71289	-345.64285	884.01154	-1213.10803	-382.49719	790.74567	-1254.95825	-348.99802	783.47900	-1245.35339	-375.95609	713.71118	-885.93066	-388.61679	936.74225	-1124.36194	-378.59396	932.61853	-931.62988	-224.48297	954.67242	-1080.46704	-219.13680	953.51178	-856.39038	-333.91461	632.24902	-899.15411	-327.87311	455.23196	-903.16687	-253.75005	270.01443	-951.24237	-204.63945	66.95870	-988.56372	-160.30492	34.54543	-970.35016	-353.18701	30.41559	-1172.59241	-399.11777	641.61731	-1139.75842	-485.48141	482.27133	-1146.25452	-467.71503	294.09726	-1105.96692	-467.67926	76.30265	-1053.30273	-425.62302	40.76632	-1085.78870	-606.32690	47.29741	-988.81720	-353.66934	1673.96936															 
219	2.180	-950.71924	-438.53940	1599.95557	-1082.28235	-423.02502	1608.26721	-940.34314	-306.97720	1571.96069	-1070.51440	-296.21039	1579.07568	-995.72095	-254.55072	1409.48132	-998.02924	-221.20624	1093.56189	-1009.62604	-373.06863	1330.73328	-1006.68488	-417.60489	1167.15161	-1085.56372	-189.89655	1230.83655	-851.55963	-347.65604	1368.29858	-777.34045	-384.42917	1179.07214	-765.64844	-425.17703	1063.90564	-776.80127	-498.39548	957.61755	-818.13806	-559.21490	859.47681	-764.95728	-543.02655	853.03864	-781.32208	-592.58929	786.96783	-1164.03247	-311.20459	1353.21667	-1234.21692	-309.51178	1129.38086	-1246.57068	-328.28024	1017.94348	-1247.50940	-350.89908	882.78247	-1212.91431	-387.58539	789.46313	-1254.54395	-353.82288	782.17059	-1245.02478	-380.69095	712.42639	-885.58600	-394.34512	935.95667	-1124.36328	-385.16431	931.76013	-931.97565	-230.54567	953.81610	-1080.81934	-225.59938	952.65240	-856.91425	-338.72784	631.53784	-899.14587	-331.67694	454.51059	-903.20258	-255.79568	269.75757	-951.23553	-204.93016	67.09931	-988.58704	-160.33661	34.88045	-970.33020	-353.19272	30.39179	-1173.04846	-405.56232	640.78802	-1138.98486	-491.58862	481.45029	-1145.19409	-479.61304	293.11447	-1104.74670	-488.30960	75.34797	-1051.57373	-447.38147	39.30061	-1085.00964	-627.83392	49.52150	-989.95386	-359.37576	1674.03076															 
220	2.190	-951.51501	-444.56195	1599.43445	-1083.06555	-429.01270	1607.59753	-941.03046	-313.13809	1571.02625	-1071.23865	-302.21686	1577.98889	-996.20099	-261.06476	1408.76746	-998.34198	-227.34018	1092.84302	-1010.03168	-379.48474	1329.86963	-1006.77740	-423.87018	1166.20068	-1085.82690	-196.22781	1230.01221	-852.05109	-354.03540	1367.67468	-777.51404	-390.66461	1178.49573	-765.83075	-431.46127	1063.49304	-777.24866	-505.63748	957.97693	-818.99622	-567.96271	861.00806	-766.06708	-551.32446	853.76343	-782.44141	-601.97272	788.66473	-1164.55762	-317.79349	1351.94885	-1234.28210	-315.50253	1128.26672	-1246.47083	-333.98056	1016.73315	-1247.31726	-356.18600	881.48981	-1212.66870	-392.75998	788.17084	-1254.18628	-358.84296	780.87433	-1244.65540	-385.55798	711.04706	-885.46729	-400.21600	935.11456	-1124.40186	-391.83020	930.89966	-932.32990	-236.64491	952.83972	-1081.12793	-232.12843	951.71167	-856.99512	-343.41467	630.78070	-899.09937	-335.11603	453.70105	-903.18878	-257.93643	269.51001	-951.28308	-205.17542	67.29063	-988.62292	-159.82310	35.77322	-970.32697	-353.19885	30.33406	-1173.28540	-411.87833	639.86310	-1138.18604	-497.43912	480.40915	-1144.21069	-491.16370	292.20142	-1103.59021	-507.70929	74.86507	-1049.95374	-468.48236	38.02857	-1084.63965	-648.40118	52.57816	-992.50671	-365.30801	1670.35974															 
221	2.200	-952.32391	-450.64047	1598.88708	-1083.89819	-435.03775	1606.94458	-941.75372	-319.36832	1569.96777	-1071.99219	-308.38321	1576.88538	-997.05957	-267.48199	1408.00061	-998.69611	-233.55547	1092.10095	-1010.48285	-386.02045	1328.91211	-1006.91943	-430.24814	1165.14575	-1086.12415	-202.68213	1229.16223	-852.54999	-360.46368	1367.02637	-777.75787	-396.78754	1177.89636	-766.10406	-437.76089	1062.90479	-777.81445	-512.68390	958.15430	-819.89172	-576.33990	862.28741	-767.24420	-559.34576	854.28046	-783.67871	-611.00702	790.18213	-1165.04382	-324.21170	1351.02905	-1234.37634	-321.66025	1127.06421	-1246.37683	-339.85529	1015.46960	-1247.09583	-361.65948	880.14990	-1212.37915	-398.00107	786.79065	-1253.96899	-364.04822	779.56854	-1244.20825	-390.41492	709.63690	-885.26202	-406.25626	934.18567	-1124.29846	-398.58817	930.04181	-932.60291	-242.71513	951.87311	-1081.42126	-238.67438	950.75977	-856.80847	-348.15906	630.06909	-899.00995	-338.89902	452.94125	-903.24811	-260.05969	269.28552	-951.14551	-205.02872	67.84936	-988.65167	-159.91931	36.26490	-970.31787	-353.25964	30.32195	-1173.38220	-418.02634	638.81122	-1137.40369	-503.18103	479.27463	-1143.25232	-502.02856	291.38171	-1102.33972	-526.39148	74.60693	-1048.27576	-488.73608	37.06358	-1084.53955	-668.05121	56.14395																		 
222	2.210	-953.10724	-456.77222	1598.31165	-1084.69324	-441.12479	1606.21106	-942.56921	-325.58594	1568.87659	-1072.78064	-314.50735	1575.72974	-997.65295	-273.99496	1407.17236	-999.03607	-239.89922	1091.26782	-1010.99634	-392.57446	1327.94543	-1007.08044	-436.55334	1164.20386	-1086.46094	-209.11757	1228.30310	-853.07172	-366.91220	1366.31543	-778.09546	-402.91449	1177.18103	-766.47333	-444.08466	1062.32202	-778.46643	-519.74158	958.24292	-820.93219	-584.38080	863.26123	-768.45319	-567.12592	854.60010	-785.03387	-619.66229	791.38153	-1165.61572	-330.79691	1349.89636	-1234.43250	-327.95020	1125.84583	-1246.27551	-345.85892	1014.15100	-1246.86133	-367.20883	878.75769	-1212.16675	-403.28647	785.26471	-1253.67224	-369.24219	778.13708	-1243.74854	-395.27344	708.16437	-885.22583	-412.35303	933.47791	-1124.23730	-405.41330	929.20502	-933.04974	-248.97112	950.80292	-1081.81299	-245.31868	949.76868	-856.88623	-352.78958	629.35968	-898.99347	-342.43979	452.14474	-903.26886	-262.15195	269.15070	-951.15601	-205.32228	68.19564	-988.82642	-160.57019	36.33264	-970.33661	-353.38193	30.22360	-1172.97559	-423.98343	637.59247	-1136.69019	-508.89160	478.05237	-1142.35437	-512.30127	290.67325	-1101.23926	-544.03821	74.64600	-1046.67371	-507.97150	36.52800	-1084.63220	-686.62476	59.72503	-994.22363	-376.86093	1668.63477															 
223	2.220	-953.95447	-462.95685	1597.74072	-1085.50867	-447.21851	1605.55908	-943.39301	-331.86145	1567.84851	-1073.56885	-320.78265	1574.57056	-998.41925	-280.58582	1406.25623	-999.37854	-246.25108	1090.43689	-1011.51324	-399.14575	1327.01648	-1007.23608	-442.85059	1163.18689	-1086.92859	-215.60603	1227.42383	-853.64435	-373.41043	1365.59619	-778.41797	-409.11169	1176.43896	-766.91272	-450.29532	1061.64490	-779.19769	-526.54742	958.11639	-822.03668	-591.99384	864.00592	-769.69226	-574.65948	854.75452	-786.52106	-627.97247	792.36481	-1166.26196	-337.46384	1348.76770	-1234.54932	-334.42770	1124.57520	-1246.18958	-352.00467	1012.79932	-1246.63342	-372.89331	877.34644	-1211.87390	-408.61148	783.76794	-1253.23621	-374.47516	776.62646	-1243.37158	-400.37692	706.62183	-885.14465	-418.42886	932.65436	-1124.22717	-412.31335	928.41260	-933.43262	-255.24365	949.70300	-1082.23547	-251.94464	948.83838	-857.01862	-357.51089	628.69623	-898.86652	-346.10635	451.52740	-903.25073	-264.12341	269.06204	-951.16724	-205.63567	68.61019	-988.88763	-160.61603	36.94349	-970.32080	-353.41644	30.22943	-1173.15332	-430.00946	636.43359	-1136.02368	-514.53192	476.81631	-1141.39270	-522.03210	289.98016	-1100.45593	-560.51385	75.05695	-1045.22412	-526.12115	36.39563	-1084.80115	-704.05377	63.01378	-995.33911	-382.66791	1667.73572															 
